<svg id="Layer_1" data-name="Layer 1" xmlns="http://www.w3.org/2000/svg" viewBox="0 0 4.51 5.19"><defs><style>.cls-1{fill:#fff;}</style></defs><path class="cls-1" d="M4.46,1.22a.35.35,0,0,0-.2-.15A.84.84,0,0,0,4,1a4.83,4.83,0,0,0-2.18.83,6.81,6.81,0,0,0-1.28,1,1.53,1.53,0,0,0-.51.9A.42.42,0,0,0,.05,4a.53.53,0,0,0,.2.16.85.85,0,0,0,.29,0,.29.29,0,0,1,0-.09V4A.67.67,0,0,1,.3,4a.2.2,0,0,1-.13-.1.17.17,0,0,1,0-.13A1.55,1.55,0,0,1,.6,3,6.59,6.59,0,0,1,1.86,2,4.79,4.79,0,0,1,4,1.15a.87.87,0,0,1,.25,0,.34.34,0,0,1,.13.1.28.28,0,0,1,0,.13,1.45,1.45,0,0,1-.47.81,6.23,6.23,0,0,1-1.26,1,6,6,0,0,1-1.53.71.31.31,0,0,1,0,.13,6.34,6.34,0,0,0,1.57-.73A6.18,6.18,0,0,0,4,2.32a1.53,1.53,0,0,0,.5-.9.35.35,0,0,0,0-.2"/><path class="cls-1" d="M.67,4.08a.16.16,0,0,0,.17.16A.16.16,0,0,0,1,4.08a.16.16,0,0,0-.16-.17.16.16,0,0,0-.17.17"/><path class="cls-1" d="M4.38,3.46a.28.28,0,0,1-.11.08.76.76,0,0,1,.08.28.29.29,0,0,1,0,.14A.4.4,0,0,1,4,4.09a4.63,4.63,0,0,1-2.12-.87,6.58,6.58,0,0,1-1.22-1,1.46,1.46,0,0,1-.45-.82.29.29,0,0,1,0-.14q.08-.12.36-.12A4.49,4.49,0,0,1,2.67,2,6.63,6.63,0,0,1,3.89,3l0,0A.39.39,0,0,1,4,3l0,0a6.9,6.9,0,0,0-1.25-1A4.75,4.75,0,0,0,.56,1a.54.54,0,0,0-.47.19A.37.37,0,0,0,0,1.37a1.67,1.67,0,0,0,.49.91A6.9,6.9,0,0,0,1.77,3.33,4.63,4.63,0,0,0,4,4.22.51.51,0,0,0,4.42,4a.37.37,0,0,0,.06-.21.89.89,0,0,0-.1-.36"/><path class="cls-1" d="M2.9.79A2.17,2.17,0,0,0,2.63.22.51.51,0,0,0,2.26,0a.47.47,0,0,0-.37.22l0,.07L2,.35l0,0A.35.35,0,0,1,2.26.13.35.35,0,0,1,2.52.3a2.43,2.43,0,0,1,.35.9A7.12,7.12,0,0,1,3,2.6a6.2,6.2,0,0,1-.24,1.77,1.8,1.8,0,0,1-.25.52.35.35,0,0,1-.26.17A.35.35,0,0,1,2,4.89,2.39,2.39,0,0,1,1.65,4a6.5,6.5,0,0,1-.14-1.4A6.23,6.23,0,0,1,1.72.91.29.29,0,0,1,1.59.86c0,.1-.05.2-.07.31A6.79,6.79,0,0,0,1.38,2.6a6.2,6.2,0,0,0,.24,1.81A1.72,1.72,0,0,0,1.89,5a.45.45,0,0,0,.37.22A.48.48,0,0,0,2.63,5,2.62,2.62,0,0,0,3,4,6.79,6.79,0,0,0,3.14,2.6,6.1,6.1,0,0,0,2.9.79"/><path class="cls-1" d="M1.6.6a.18.18,0,0,0,.17.17A.17.17,0,0,0,1.93.6.16.16,0,0,0,1.77.44.17.17,0,0,0,1.6.6"/><path class="cls-1" d="M2.63,2.93a.08.08,0,0,1,0-.12.1.1,0,0,1,.12-.05l.11,0a.62.62,0,0,0,0-.23H2.76a.1.1,0,0,1-.11-.07.12.12,0,0,1,.06-.12l.11-.05a.72.72,0,0,0-.14-.19l-.09.08a.09.09,0,0,1-.13,0,.1.1,0,0,1,0-.12l0-.11a.59.59,0,0,0-.23,0v.12a.12.12,0,0,1-.07.11A.11.11,0,0,1,2,2.13L2,2a1.33,1.33,0,0,0-.19.14l.09.09a.12.12,0,0,1,0,.13.11.11,0,0,1-.12,0l-.12,0a.58.58,0,0,0,0,.23h.12a.1.1,0,0,1,.1.07.11.11,0,0,1-.05.12l-.11.06a.85.85,0,0,0,.14.19L1.91,3A.11.11,0,0,1,2,3a.1.1,0,0,1,.05.12l0,.12a.61.61,0,0,0,.23,0V3.1A.08.08,0,0,1,2.35,3a.11.11,0,0,1,.12,0l0,.11A.55.55,0,0,0,2.71,3Zm-.32-.09A.25.25,0,0,1,2,2.65a.26.26,0,0,1,.19-.31.27.27,0,0,1,.31.19.26.26,0,0,1-.19.31"/><path class="cls-1" d="M4.32,3.24a.16.16,0,0,0-.16-.16.16.16,0,1,0,0,.32.16.16,0,0,0,.16-.16"/></svg>