<svg id="Layer_1" data-name="Layer 1" xmlns="http://www.w3.org/2000/svg" viewBox="0 0 134.43 32.09"><defs><style>.cls-1{fill:#fff;}</style></defs><path class="cls-1" d="M0,32.09V0H18.24c4.11,0,7.31.88,9.51,2.53A8.46,8.46,0,0,1,31.1,9.62a8.49,8.49,0,0,1-3.3,7.07c-2.18,1.66-5.35,2.55-9.41,2.55H6.1V32.09Zm16.41-17h.19c3,0,5.08-.51,6.43-1.43a4.53,4.53,0,0,0,2-4,4.48,4.48,0,0,0-2-4c-1.38-.92-3.55-1.43-6.58-1.43H6.1V15.05Zm17.35,17V0h6.1V27.9H61.49v4.19ZM88.15,0,96,25.59,105,0h6.36l8.85,25.6L128.29,0h6.14L123.35,31.87l-.08.22h-6.13L108,6.18,98.72,32.09H92.58L83.28,4.18H70.8V32.09H64.7V4.19H51.09V0Z"/></svg>